<svg width="846" height="390" viewBox="0 0 846 390" fill="none" xmlns="http://www.w3.org/2000/svg">
<path fill-rule="evenodd" clip-rule="evenodd" d="M46.1778 390H266.754C279.03 390 290.655 385.819 299.457 378.217L323.201 357.456H799.817C825.247 357.456 846 340.31 846 318.079V295.847H846V40.3805C846 18.1492 825.356 0 799.818 0H46.1778C20.7527 0 0 18.0544 0 40.3805V349.623C0 371.855 20.6441 390 46.1778 390ZM843.281 295.847H411.701C400.072 295.847 389.098 299.838 380.952 306.963L325.922 355.077H799.817C823.831 355.077 843.281 338.982 843.281 318.079V295.847ZM321.906 355.077L378.993 305.161C387.687 297.558 399.312 293.282 411.701 293.282H843.282V40.3805C843.282 19.3822 823.723 2.37867 799.818 2.37867H46.1778V2.28383C22.1683 2.28383 2.71839 19.3822 2.71839 40.2857V349.528C2.71839 370.523 22.2769 387.53 46.1778 387.53H266.754C278.378 387.53 289.352 383.539 297.503 376.415L321.407 355.513V355.077H321.906Z" fill="#1E1E1E"/>
</svg>
